<svg width="60" height="59" viewBox="0 0 60 59" fill="none" xmlns="http://www.w3.org/2000/svg">
<path fill-rule="evenodd" clip-rule="evenodd" d="M26.6827 0.038265C26.6517 0.0426881 26.2992 0.0682815 25.8993 0.0951266C25.4994 0.121944 25.1556 0.157301 25.1352 0.173686C25.1046 0.19825 25.1069 0.451511 25.1482 1.62221C25.1757 2.40252 25.2197 3.68566 25.2459 4.47362C25.3026 6.17944 25.1185 5.95725 26.462 5.94092C28.7832 5.91271 29.7452 5.35965 30.1513 3.81988C30.7393 1.59002 29.0109 -0.294391 26.6827 0.038265ZM27.9077 0.689805C30.0584 1.21458 30.1824 4.51624 28.0774 5.20759C27.7486 5.31558 27.558 5.33608 26.7083 5.35489L25.9166 5.37241L25.8981 4.77699C25.8878 4.44948 25.8524 3.40188 25.8194 2.44898C25.7863 1.49607 25.7665 0.709335 25.7753 0.700655C25.8681 0.609048 27.5418 0.600507 27.9077 0.689805ZM34.4402 0.704105C33.2447 0.902759 32.3411 1.8218 32.0807 3.104C31.2868 7.01327 37.1121 8.25822 38.1027 4.39097C38.6579 2.22351 36.7648 0.317871 34.4402 0.704105ZM35.4737 1.30624C36.819 1.52348 37.6679 2.58629 37.5174 3.86489C37.3256 5.49415 36.0483 6.4285 34.5157 6.06079C31.5116 5.34003 32.4236 0.813711 35.4737 1.30624ZM41.2911 3.00101C41.2128 3.15499 40.8533 3.82787 40.4922 4.49626C40.131 5.16466 39.6863 5.99322 39.5038 6.33747C39.3213 6.68173 39.0721 7.14633 38.95 7.36994C38.8279 7.59352 38.728 7.78914 38.728 7.80466C38.728 7.85771 40.6161 8.91104 41.0083 9.07681C42.9277 9.88789 44.4217 8.2146 43.0546 6.78491C42.9608 6.68674 42.8998 6.61547 42.9192 6.62656C43.4675 6.94075 44.4883 6.22153 44.6224 5.42641C44.7713 4.54384 44.28 4.06433 42.2012 3.06335C41.3523 2.65456 41.4633 2.66215 41.2911 3.00101ZM42.4827 3.83688C43.7099 4.44216 43.9835 4.69795 43.9822 5.23864C43.9805 5.97605 43.3202 6.38974 42.5318 6.1473C42.3151 6.08071 40.8147 5.31436 40.8136 5.26979C40.8126 5.22876 41.7545 3.49997 41.7778 3.49997C41.7898 3.49997 42.107 3.65158 42.4827 3.83688ZM21.3011 4.72185C10.9623 7.47862 3.06809 16.1213 1.32715 26.5895C1.10571 27.921 1.10301 28.046 1.29599 28.0294L1.38037 28.0221L1.42993 27.6466C2.86813 16.7437 10.6604 7.87635 21.3553 4.97205C21.944 4.81218 21.8842 4.8433 21.8484 4.71548C21.8124 4.58662 21.8081 4.58668 21.3011 4.72185ZM41.3181 6.1751C42.2253 6.65249 42.4118 6.76808 42.6304 6.98874C43.4909 7.85738 42.6227 9.02757 41.4188 8.62164C41.1303 8.52436 39.7217 7.78672 39.5772 7.65719C39.5453 7.62868 39.6087 7.49287 39.948 6.86191C40.173 6.44341 40.3926 6.02902 40.436 5.94106C40.5351 5.7399 40.446 5.71625 41.3181 6.1751ZM47.3863 6.67761C47.2334 6.85009 46.8172 7.32228 46.4613 7.72693C46.1054 8.13159 45.548 8.76407 45.2226 9.13244C44.4253 10.035 43.843 10.7057 43.8372 10.7282C43.831 10.7519 44.2645 11.1223 44.2983 11.1223C44.3122 11.1223 44.6255 10.778 44.9943 10.3573C45.3632 9.93652 45.6706 9.59226 45.6774 9.59226C45.6842 9.59226 45.9143 9.78315 46.1888 10.0165C46.4633 10.2498 46.7351 10.4783 46.7928 10.5242L46.8977 10.6076L46.801 11.7343C46.7479 12.354 46.697 12.9318 46.6879 13.0184L46.6714 13.1759L46.9552 13.4186C47.3035 13.7163 47.2484 13.8658 47.3663 12.302C47.4216 11.569 47.471 10.9555 47.4763 10.9386C47.4825 10.9186 47.5576 10.9329 47.6925 10.9798C49.0583 11.4549 50.4809 10.0857 50.0159 8.74379C49.8006 8.12243 49.4254 7.73511 47.8522 6.51034L47.6642 6.36399L47.3863 6.67761ZM48.3346 7.64217C49.6407 8.7291 49.8384 9.44577 49.0309 10.1664C48.3734 10.7532 47.7714 10.6235 46.6314 9.64921C46.3214 9.38434 46.0647 9.16513 46.0609 9.16207C46.057 9.15901 46.2395 8.94472 46.4663 8.68587C47.6539 7.3308 47.7754 7.19871 47.8145 7.22033C47.8361 7.23223 48.0702 7.42207 48.3346 7.64217ZM51.6022 12.011C48.9694 12.4879 48.0064 15.3067 49.8231 17.218C52.0919 19.6049 56.1532 17.0103 54.8647 13.9972C54.282 12.6347 52.8779 11.7799 51.6022 12.011ZM52.7315 12.7327C54.4405 13.2742 55.0213 15.4028 53.805 16.6669C52.3923 18.135 50.1811 17.6098 49.5858 15.6647C49.0665 13.9679 50.9853 12.1794 52.7315 12.7327ZM14.1232 14.508C13.6933 14.5239 13.7707 14.6947 14.2712 14.8342C15.7836 15.2558 16.8318 16.2506 17.1743 17.5894C17.3381 18.2296 17.3283 17.4403 17.3283 30.0251V41.6533L17.2663 41.9894C16.9255 43.8371 15.906 44.7946 13.5668 45.4637C13.4195 45.5059 13.2864 45.5522 13.2709 45.5668C13.2288 45.6064 28.7097 45.5787 29.3454 45.538C39.1993 44.9071 44.2336 40.1231 44.704 30.9431C45.2028 21.2109 39.8041 15.22 29.923 14.5405C29.5001 14.5114 14.8447 14.4813 14.1232 14.508ZM29.1763 16.2693C35.8177 16.7219 40.1166 22.5687 39.7403 30.6371C39.6645 32.262 39.6777 32.3855 39.9955 33.0295C40.3803 33.8093 40.5287 34.4108 40.5717 35.3663L40.5868 35.7001L40.5301 35.5193C40.339 34.9096 40.254 34.6854 40.0817 34.337C39.7131 33.5915 39.2071 32.9409 38.5046 32.3091C37.7012 31.5864 36.3962 30.7949 32.0861 28.4161C26.9483 25.5805 25.0935 23.4586 24.8035 20.0846C24.7679 19.6704 24.7566 19.6688 24.6719 20.066C24.293 21.8442 24.8593 24.0396 26.161 25.8384C26.9413 26.9167 27.8293 27.7856 30.895 30.4702C34.2394 33.3989 35.0605 34.2898 35.8531 35.8497C37.08 38.2642 36.5241 40.475 34.3159 41.9629C29.304 45.3401 22.479 43.9182 21.4561 39.2838C21.2961 38.5593 21.3037 38.8215 21.297 33.7389C21.2894 27.9148 21.3666 28.6571 20.7007 28.0084C19.9003 27.2287 19.4048 26.5446 18.9146 25.5425C18.6639 25.0301 18.6736 25.0287 19.0743 25.5192C20.5381 27.311 21.8087 28.2693 26.0151 30.7542C31.2677 33.8571 32.6838 35.15 33.5174 37.6041C33.6889 38.1091 33.6989 38.09 33.6974 37.2579C33.6955 36.1669 33.4236 35.2472 32.7627 34.0953C31.9534 32.6848 31.1828 31.877 28.0009 29.1034C25.8935 27.2665 24.89 26.3213 24.3128 25.6297C20.0692 20.5451 22.5263 15.8162 29.1763 16.2693ZM55.9436 19.4007C55.068 19.6216 53.8159 19.9352 53.1612 20.0976C52.5064 20.26 51.9707 20.405 51.9707 20.4198C51.9707 20.4346 52.0094 20.5696 52.0566 20.7197L52.1425 20.9926L54.3016 20.4545L56.4606 19.9164L56.3218 20.0496C56.2455 20.1229 55.4477 20.8524 54.5488 21.6708C53.65 22.4892 52.9004 23.1765 52.883 23.1981C52.8302 23.2636 52.9961 23.7473 53.0774 23.7646C53.1401 23.778 55.3058 24.0681 56.9982 24.2898L57.898 24.4077L57.5477 24.5425C57.355 24.6167 56.5888 24.9056 55.8449 25.1846C54.0057 25.8744 53.7917 25.9561 53.7647 25.9789C53.7368 26.0024 53.9065 26.5617 53.9415 26.5617C53.9548 26.5617 54.1159 26.5043 54.2995 26.4341C54.4831 26.364 55.0835 26.1396 55.6336 25.9354C57.1693 25.3654 59.3649 24.5302 59.3845 24.5085C59.4397 24.4478 59.231 23.9475 59.1443 23.9326C59.0963 23.9244 58.3406 23.8307 57.4651 23.7245C53.1161 23.1969 53.6299 23.288 53.8663 23.0869C53.9628 23.0049 54.4854 22.5406 55.0278 22.0551C55.5702 21.5697 56.422 20.808 56.9207 20.3625L57.8274 19.5525L57.7587 19.3363C57.721 19.2174 57.6825 19.092 57.6731 19.0576C57.6489 18.9679 57.696 18.9586 55.9436 19.4007ZM56.7607 28.1346C55.4202 28.1854 54.2555 28.2278 54.1724 28.2288L54.0214 28.2308L54.0408 28.808C54.1142 30.9846 54.1671 32.2187 54.188 32.2393C54.2014 32.2525 54.3324 32.2541 54.4792 32.243L54.7461 32.2228L54.7373 31.8333C54.7325 31.6191 54.7104 30.9619 54.6882 30.3728C54.6661 29.7838 54.6478 29.1998 54.6477 29.0751L54.6475 28.8483L54.9644 28.8316C55.1388 28.8223 55.5952 28.8055 55.9788 28.794L56.6762 28.7733L56.6766 28.8567C56.678 29.1328 56.7891 31.8011 56.7996 31.8115C56.8486 31.8599 57.3805 31.781 57.3801 31.7254C57.3799 31.693 57.3549 31.0161 57.3247 30.2213C57.2944 29.4265 57.2755 28.7703 57.2828 28.7631C57.3107 28.7356 59.2799 28.6772 59.2963 28.7035C59.3055 28.7181 59.3351 29.3782 59.3621 30.1704C59.3892 30.9626 59.4189 31.714 59.4282 31.8403L59.4451 32.0698H59.7055C60.056 32.0698 60.0308 32.2822 59.9473 30.0251L59.8741 28.05L59.536 28.0462C59.35 28.044 58.1011 28.0838 56.7607 28.1346ZM1.09041 29.9764L0.124003 29.9841L0.132426 30.1437L0.14088 30.3033L0.895604 30.3172L1.65036 30.3311L1.02947 30.7066C0.218279 31.1973 0.22569 31.1427 0.916482 31.5412C1.195 31.7019 1.48313 31.8709 1.55673 31.9168L1.69056 32.0002L0.915722 32.0141L0.14088 32.028V32.181V32.334L1.21157 32.3418C2.47465 32.3509 2.40905 32.359 2.40905 32.1938C2.40905 32.044 2.45487 32.0768 1.48848 31.5339L0.835617 31.1671L1.60823 30.7135L2.38088 30.26V30.1078V29.9555L2.21886 29.9621C2.12977 29.9657 1.62195 29.9722 1.09041 29.9764ZM1.26899 33.1861C0.0615356 33.3152 0.202021 33.1777 0.307484 34.1274L0.395424 34.9193L0.535823 34.9108C0.613054 34.9062 0.681126 34.8976 0.687156 34.8917C0.695355 34.8837 0.617139 34.0696 0.568395 33.6558C0.564197 33.6202 1.21304 33.5194 1.24135 33.5512C1.24471 33.555 1.26792 33.7458 1.29294 33.9753C1.31796 34.2048 1.34577 34.4473 1.3547 34.5142L1.37099 34.6357L1.51026 34.6225C1.68938 34.6055 1.67876 34.6629 1.61364 34.0646C1.54698 33.4519 1.51587 33.5163 1.89757 33.4762L2.20464 33.444L2.26876 34.0505L2.33289 34.6569H2.46791C2.63855 34.6569 2.64201 34.1418 2.47797 33.1616C2.45929 33.0499 2.5607 33.0479 1.26899 33.1861ZM54.0558 33.7771C54.0558 33.7829 53.979 34.1052 53.8852 34.4935C53.4855 36.1483 53.4497 36.5391 53.6357 37.2157C54.2491 39.4474 57.5686 40.051 58.9164 38.176C59.3112 37.6267 59.4465 37.1825 59.6909 35.6314C59.8245 34.783 59.9867 34.9269 58.5921 34.6567C57.949 34.5321 56.6829 34.2809 55.7785 34.0984C54.2076 33.7815 54.0558 33.7532 54.0558 33.7771ZM56.6775 34.9216C57.8623 35.159 58.8986 35.3665 58.9804 35.3828C59.1272 35.4119 59.129 35.4135 59.1146 35.5006C58.7481 37.7129 58.3531 38.3414 57.1789 38.5806C55.3536 38.9525 53.859 37.5723 54.1949 35.8253C54.2887 35.3375 54.486 34.49 54.5058 34.49C54.5154 34.49 55.4927 34.6842 56.6775 34.9216ZM0.366289 35.3802L0 35.4529L0.0048462 35.5869C0.011383 35.7667 0.0225404 35.7724 0.277815 35.7245C0.547742 35.6739 0.486431 35.5515 0.697808 36.563L0.877939 37.4249L0.805243 37.4435C0.765289 37.4538 0.658419 37.4768 0.567748 37.4947L0.402919 37.5273L0.422135 37.6569C0.452086 37.8588 0.441604 37.8576 1.03823 37.726L1.23118 37.6834L1.21208 37.5576C1.20154 37.4883 1.18697 37.4163 1.17968 37.3975C1.17015 37.373 1.43563 37.3105 2.11842 37.1766C2.64204 37.0738 3.07491 36.9854 3.08035 36.98C3.09105 36.9694 2.78703 35.4658 2.771 35.4503C2.76565 35.445 2.50767 35.4831 2.19773 35.5349C1.246 35.6939 0.858072 35.6617 0.771092 35.4162L0.732577 35.3076L0.366289 35.3802ZM2.61919 36.2078C2.66368 36.4335 2.70521 36.6378 2.71149 36.6618C2.72454 36.7117 1.15375 37.0477 1.11456 37.0034C1.10309 36.9904 1.04637 36.7482 0.988528 36.4651C0.930711 36.1821 0.877232 35.9289 0.869709 35.9025C0.857086 35.8582 0.86357 35.8577 0.955423 35.8956C1.10293 35.9564 1.56355 35.9451 2.02868 35.8692C2.24563 35.8338 2.44906 35.8031 2.48073 35.8011C2.53294 35.7978 2.54585 35.8358 2.61919 36.2078ZM2.63446 37.9524C2.31678 38.0489 1.85398 38.1908 1.60604 38.2678L1.15522 38.4079L1.15897 38.49C1.1686 38.7002 1.16097 38.6959 2.2059 39.0797C2.7373 39.275 3.17716 39.4397 3.18336 39.4458C3.18956 39.452 2.84598 39.5623 2.41981 39.6911C1.55095 39.9536 1.6035 39.925 1.64861 40.1107C1.6931 40.2937 1.5325 40.325 3.25433 39.7977C3.89742 39.6007 3.85775 39.6249 3.81245 39.4576C3.769 39.2973 3.87857 39.3509 2.75421 38.9397C1.63697 38.5312 1.65847 38.6135 2.59516 38.3306L3.37264 38.0957L3.35822 38.0106C3.31052 37.7293 3.35698 37.7331 2.63446 37.9524ZM3.73333 40.4475C3.55511 40.5243 3.11199 40.7112 2.74863 40.8628C2.38524 41.0145 2.07781 41.1486 2.06542 41.1608C2.05302 41.173 2.13301 41.389 2.24318 41.6407C2.52289 42.2798 2.77526 42.8742 2.77531 42.894C2.77531 42.9032 2.68977 42.9458 2.58515 42.9888C2.32889 43.094 2.30201 43.1596 2.43326 43.3596C2.53184 43.5098 3.20703 43.0906 3.13555 42.9236C3.10204 42.8453 3.08021 42.7766 3.087 42.771C3.09379 42.7653 3.49242 42.5944 3.97282 42.3911C4.45323 42.1878 4.85034 42.0181 4.8553 42.0139C4.87606 41.9966 4.73795 41.7229 4.70845 41.7229C4.69067 41.7229 4.29282 41.8856 3.82431 42.0845C3.35582 42.2834 2.96192 42.4461 2.94899 42.4461C2.91346 42.4461 2.46042 41.3827 2.48572 41.3586C2.50336 41.3419 3.40508 40.9525 4.10728 40.6585C4.25267 40.5976 4.25216 40.5998 4.16631 40.3969C4.11706 40.2805 4.12247 40.2799 3.73333 40.4475ZM51.3054 42.723C51.1318 42.7945 51.1255 42.8278 51.1255 43.6739V44.4491H50.337H49.5485L49.4565 44.5303L49.3644 44.6114V45.293V45.9746L49.4328 46.0465C49.5391 46.1582 49.6536 46.1735 50.3844 46.1737C51.6026 46.1739 51.8566 46.0285 52.1822 45.1443C52.3549 44.6749 52.436 44.5586 52.7984 44.2599L52.8761 44.1959L52.8672 43.5441L52.8583 42.8922L52.7662 42.8013L52.6741 42.7104L52.0196 42.7045C51.6595 42.7012 51.3382 42.7096 51.3054 42.723ZM4.19274 43.2863L3.22923 43.8184L3.30316 43.946C3.34379 44.0161 3.37887 44.0765 3.38107 44.0801C3.38521 44.0869 5.38659 44.3928 5.43736 44.3943C5.49056 44.396 5.36822 44.4692 4.69095 44.841L4.01686 45.2112L4.10004 45.3517C4.1458 45.429 4.19296 45.4899 4.20483 45.4869C4.22562 45.4817 6.13221 44.4503 6.15221 44.4333C6.15762 44.4288 6.12843 44.364 6.08735 44.2895L6.01266 44.154L4.99274 44.0061C4.43178 43.9247 3.9631 43.8494 3.95124 43.8388C3.93935 43.8282 4.25304 43.645 4.64829 43.4319C5.04351 43.2187 5.36706 43.0364 5.36723 43.0269C5.36802 42.9825 5.21812 42.7523 5.18904 42.7532C5.17098 42.7538 4.72265 42.9937 4.19274 43.2863ZM52.7087 44.5449C52.5701 44.6685 52.481 44.8328 52.3382 45.2281C52.1092 45.8619 51.7377 46.2286 51.2518 46.3006L51.1255 46.3192V47.0144V47.7094L51.2212 47.804L51.3171 47.8986H51.9824H52.6478L52.753 47.8034L52.8583 47.7082L52.867 46.943L52.8757 46.1778L53.6511 46.1689L54.4265 46.1599L54.5229 46.056L54.6193 45.9521V45.2952V44.6383L54.5235 44.5437L54.4277 44.4491H53.6219H52.8162L52.7087 44.5449ZM6.2404 45.2518C6.09285 45.3556 5.74417 45.5948 5.46556 45.7835C5.18693 45.9721 4.89886 46.1694 4.82535 46.2219L4.69171 46.3174L4.77641 46.4389C4.82298 46.5058 4.87189 46.5671 4.88505 46.5751C4.89824 46.5831 5.08183 46.4711 5.29301 46.3262C5.50419 46.1812 5.68829 46.0626 5.70213 46.0626C5.72219 46.0626 6.37252 46.9672 6.40447 47.0395C6.40915 47.0501 6.2348 47.1805 6.01705 47.3293C5.56593 47.6375 5.5925 47.5987 5.71557 47.7696L5.80999 47.9007L6.45519 47.4525C6.81004 47.2059 7.224 46.9208 7.37508 46.8188C7.68857 46.6073 7.67738 46.6279 7.56257 46.4726C7.45634 46.329 7.49303 46.3182 7.0508 46.6229C6.85002 46.7613 6.67569 46.8639 6.66341 46.851C6.61176 46.7969 5.98741 45.8943 5.98741 45.8738C5.98741 45.8614 6.13007 45.7526 6.30439 45.6319C6.47875 45.5111 6.64887 45.3917 6.68249 45.3666L6.7436 45.3209L6.65803 45.191C6.55057 45.0279 6.56108 45.0263 6.2404 45.2518ZM7.53709 47.5558C6.85904 47.7953 6.55105 48.513 6.85337 49.1489C7.06346 49.5908 7.83545 50.0417 7.89006 49.7544C7.92404 49.5755 7.90206 49.5295 7.7722 49.5077C7.13733 49.4013 6.84889 48.6166 7.27328 48.1506C7.78163 47.5924 8.70964 47.8843 8.77154 48.6219C8.78639 48.7988 8.80364 48.8156 8.97064 48.8162L9.09402 48.8166L9.08134 48.6003C9.03953 47.8873 8.20205 47.3208 7.53709 47.5558ZM49.3325 48.6845C44.197 54.5624 36.5431 58.075 28.8593 58.08L28.5846 58.0802V58.2054C28.5846 58.3282 28.5864 58.3306 28.6762 58.3304C36.6186 58.3075 44.1524 54.9052 49.4345 48.9557C49.8085 48.5345 49.8026 48.5454 49.7012 48.4653C49.5897 48.3772 49.6131 48.3633 49.3325 48.6845ZM9.50914 49.1157C9.44306 49.1884 9.09647 49.5388 8.73892 49.8944L8.08887 50.5411L8.19906 50.6525C8.34564 50.8007 8.32304 50.8111 8.6971 50.4233L9.02592 50.0824L9.18478 50.2373L9.34366 50.3922L9.2582 50.9882L9.17277 51.5841L9.30464 51.7163C9.47409 51.8862 9.46017 51.9157 9.57468 51.1445C9.69183 50.3554 9.57217 50.4796 10.3351 50.355C10.7398 50.2889 10.9746 50.2388 10.9746 50.2184C10.9746 50.1543 10.747 49.9796 10.6831 49.9946C10.6497 50.0024 10.3832 50.0489 10.0909 50.0979L9.55954 50.1869L9.40102 50.0304L9.24251 49.8739L9.57318 49.5465C9.94502 49.1784 9.93747 49.1935 9.81096 49.0724C9.6876 48.9544 9.65103 48.9596 9.50914 49.1157ZM10.6646 51.2938C10.316 51.7216 9.99968 52.1102 9.96179 52.1574L9.89289 52.2431L10.0041 52.337C10.1446 52.4558 10.0227 52.4705 11.1736 52.1966C12.3262 51.9222 12.239 51.9204 11.9959 52.2141C11.0652 53.3384 11.1267 53.2374 11.2957 53.3646C11.4326 53.4678 11.2816 53.6234 12.5891 52.0316L12.8389 51.7276L12.7309 51.6363C12.5915 51.5185 12.6855 51.5071 11.5398 51.7801C10.355 52.0624 10.4306 52.1246 11.0487 51.3759C11.3329 51.0317 11.5652 50.7375 11.5649 50.7222C11.5646 50.697 11.3369 50.5119 11.3099 50.5148C11.3037 50.5154 11.0133 50.866 10.6646 51.2938ZM14.0426 51.981C13.8688 52.4253 14.6286 52.9152 14.9608 52.5729C15.0054 52.5269 15.0365 52.4851 15.0299 52.48C15.0232 52.4749 14.9758 52.442 14.9245 52.407L14.8311 52.3432L14.7677 52.4021C14.5913 52.5657 14.2419 52.3525 14.2839 52.1069C14.3003 52.0111 14.2944 51.997 14.2188 51.953C14.1059 51.8871 14.0776 51.8916 14.0426 51.981ZM13.1552 52.564C12.086 54.1755 12.1733 54.0123 12.3264 54.1124C12.4711 54.2069 12.3571 54.2334 13.4562 53.8502C14.5622 53.4647 14.493 53.4701 14.2784 53.7869C14.1869 53.922 13.9873 54.2251 13.8349 54.4603L13.5578 54.888L13.6238 54.9372C13.6601 54.9643 13.7238 55.0062 13.7652 55.0304L13.8406 55.0743L14.2492 54.4561C15.1089 53.1555 15.0739 53.2143 15.0144 53.1703C14.824 53.0297 14.8234 53.0297 14.4261 53.1705C12.5677 53.829 12.7045 53.8699 13.377 52.8571C13.7446 52.3035 13.7391 52.3251 13.5413 52.2154L13.4282 52.1526L13.1552 52.564ZM16.5416 54.0707C16.5055 54.1284 15.653 55.9999 15.6457 56.0375C15.6403 56.0656 15.7108 56.1115 15.8631 56.1792C17.5617 56.9342 17.3857 56.8274 17.286 57.0428C17.1546 57.3267 17.1534 57.3138 17.3162 57.383C17.3956 57.4167 17.4642 57.4403 17.4688 57.4354C17.4797 57.4236 17.7932 56.7395 17.7932 56.7274C17.7932 56.7222 17.7254 56.6834 17.6425 56.6411L17.4918 56.5641L17.882 55.7035C18.3376 54.6986 18.3067 54.8191 18.1279 54.7432C17.9514 54.6683 18.0022 54.6004 17.6397 55.3957C17.4723 55.7629 17.2957 56.1463 17.2473 56.2475L17.1592 56.4317L16.638 56.1969C16.009 55.9135 16.0562 55.958 16.155 55.7415C16.6268 54.7081 16.8643 54.1775 16.8575 54.1718C16.7923 54.1177 16.559 54.043 16.5416 54.0707ZM19.0108 55.208C18.5016 56.62 18.3003 57.1872 18.3003 57.2104C18.3003 57.2393 18.4866 57.3101 19.3515 57.6095L19.8251 57.7735L19.863 57.6834C19.9467 57.4848 19.9732 57.5053 19.3429 57.2808C19.0252 57.1677 18.7552 57.0654 18.743 57.0536C18.7234 57.0346 18.8827 56.5526 18.9405 56.456C18.9576 56.4273 19.0681 56.4579 19.4415 56.5948C20.019 56.8065 19.9939 56.8044 20.0517 56.6458C20.097 56.5213 20.0968 56.5184 20.0374 56.4963C20.0041 56.4839 19.774 56.401 19.526 56.3121C19.2781 56.2232 19.0702 56.1468 19.0642 56.1424C19.0457 56.1289 19.2629 55.5487 19.2864 55.5487C19.2985 55.5487 19.5576 55.6364 19.8621 55.7435C20.4223 55.9405 20.8029 55.8925 20.5338 55.659C20.3847 55.5295 19.0386 55.1309 19.0108 55.208ZM21.104 55.9099C21.014 56.1899 20.5605 57.9855 20.5763 57.9993C20.793 58.1878 20.8978 58.0965 21.0224 57.6108C21.0827 57.3756 21.1467 57.1775 21.1648 57.1707C21.1975 57.1582 22.3009 57.4307 22.3287 57.4581C22.3368 57.4661 22.2904 57.6751 22.2255 57.9225C22.0953 58.4191 22.093 58.3968 22.28 58.446C22.4604 58.4934 22.4326 58.558 22.7255 57.4126C22.8682 56.8541 22.9908 56.3822 22.9979 56.3639C23.0148 56.3197 22.6965 56.2259 22.6705 56.2674C22.6605 56.2835 22.6031 56.4851 22.5431 56.7155C22.4831 56.9459 22.4208 57.1344 22.4047 57.1344C22.323 57.1344 21.2307 56.8447 21.2307 56.823C21.2307 56.791 21.4206 56.045 21.4442 55.9842C21.4634 55.9349 21.3974 55.9003 21.2223 55.8679C21.1371 55.8521 21.1207 55.8579 21.104 55.9099ZM23.4416 56.4404C23.4341 56.4524 23.4202 56.518 23.4107 56.5862L23.3935 56.7103L23.573 56.7403C24.1943 56.8443 24.1374 56.8269 24.1211 56.908C24.0707 57.1579 23.8199 58.7264 23.8289 58.7353C23.8865 58.7922 24.1594 58.7775 24.1739 58.7168C24.1826 58.6803 24.2525 58.2578 24.329 57.7779C24.4934 56.7479 24.412 56.8791 24.8433 56.9486C25.0405 56.9804 25.21 56.9981 25.2202 56.988C25.2407 56.9678 25.2882 56.7361 25.2747 56.7226C25.2679 56.7158 24.6714 56.6161 23.5193 56.429C23.4841 56.4233 23.4491 56.4284 23.4416 56.4404ZM25.7105 56.8354C25.7105 56.8698 25.6728 57.3598 25.6269 57.9243C25.5319 59.091 25.5224 58.9983 25.7371 58.9983H25.9011L25.9213 58.68L25.9414 58.3618L26.4248 58.3671C27.1833 58.3753 27.4446 58.2026 27.4798 57.6696C27.5159 57.1237 27.2225 56.886 26.4228 56.8134C25.7832 56.7553 25.7107 56.7575 25.7105 56.8354ZM26.7646 57.1645C27.195 57.2715 27.2772 57.8218 26.894 58.0311C26.8073 58.0785 26.0208 58.0914 25.977 58.0461C25.967 58.0358 26.0184 57.311 26.0376 57.1929L26.0529 57.0984L26.3474 57.1162C26.5094 57.1259 26.6971 57.1477 26.7646 57.1645Z" fill="#232323"/>
</svg>
